<?xml version="1.0" encoding="utf-8"?>
<!-- Generator: Adobe Illustrator 15.0.0, SVG Export Plug-In . SVG Version: 6.00 Build 0)  -->
<!DOCTYPE svg PUBLIC "-//W3C//DTD SVG 1.1//EN" "http://www.w3.org/Graphics/SVG/1.1/DTD/svg11.dtd">
<svg version="1.1" id="svg2211" xmlns:svg="http://www.w3.org/2000/svg"
	 xmlns="http://www.w3.org/2000/svg" xmlns:xlink="http://www.w3.org/1999/xlink" x="0px" y="0px" width="400px" height="400px"
	 viewBox="0 0 400 400" enable-background="new 0 0 400 400" xml:space="preserve">
<path fill="#EEEEEE" stroke="#000000" stroke-miterlimit="10" d="M314.5,377.902c0,3.011-1.898,5.452-4.24,5.452H89.741
	c-2.342,0-4.241-2.441-4.241-5.452V22.099c0-3.012,1.899-5.453,4.241-5.453H310.26c2.342,0,4.24,2.441,4.24,5.453V377.902z"/>
<path id="path2222" d="M128.401,360.5c-0.77-3.259,0.321-54.756,0.25-58.33c-0.269-13.343-2.163-16.408-4.25-18.67
	c-1.029-1.115-1.194-4.947,0.429-6.571c1.615-1.615,5.135-1.445,8.311-0.516c0.528,0.154,6.624,3.153,7.804,4.563
	c2.689,3.218,0.797,73.114,0.359,77.572c-0.494,5.012-0.649,8.27-2.616,9.8C133.348,372.504,128.92,362.699,128.401,360.5z
	 M249.883,364.891c-0.632-6.712-2.476-5.74-15.981-6.28c-8.07-0.323-80.065,0.663-82.518,0.271c-4.772-0.763-6.982-2.285-6.982-4.81
	c0-1.079,4.213-2.285,6-2.571c1.609-0.258,77.568-5.045,85.779-4.939c6.721,0.088,13.682,1.271,14.221,0.023
	c2-4.625,8.213-28.748,9-32.805c0.631-3.248,1.656-9.779,2-16.779c0.344-6.992,1.617-11.826,2-13.5
	c1.264-5.533,6.618,0.503,8.229,1.828c1.844,1.518,6.696,5.07,6.771,7.672c0.318,11.168-13.59,58.557-16.459,65.607
	c-1.307,3.211-4.978,8.024-6.08,9.094C252.755,370.719,250.12,367.408,249.883,364.891z M158.401,300.5c0-13.334-0.05-18.382-1-21
	c-0.629-1.73-1.807-3.484-2-4c-1.332-3.562,1.49-3.913,3.824-3.913c1.65,0,2.799,2.095,4.523,3.652
	c2.431,2.196,4.613,0.206,9.652-0.739c2.62-0.491,39.768-6.176,45.794-6.881c1.673-0.196,15.68-1.68,19.999,2.012
	c1.756,1.502,3.826,3.244,3.1,9.119c-0.803,6.492-11.642,43.673-12.246,47.311c-0.414,2.498-1.272,5.209-2.064,6
	c-1.623,1.623-6.756,0.531-8.582,0.439c-2.078-0.105-37.371,2.281-41.223,1.479c-3.062-0.638-9.818-0.724-10.172,0.414
	c-0.523,1.689-3.984,2.194-5.54,2.194C159.936,336.587,158.401,313.834,158.401,300.5z M189.296,307.462
	c0.885-4.472-3.658-3.206-15.244-0.962c-2.57,0.498-5.551,0.059-4.737,9.848c0.814,9.796,0.017,7.252,1.13,8.718
	c1.145,1.507,14.596,1.001,16.011-0.033C187.939,323.947,188.402,311.973,189.296,307.462z M216.631,323.587
	c2.71,0,11.468-44.876,8.771-47.087c-1.89-1.549-6.465-1.487-8.878-1.227c-4.972,0.537-10.048,0.854-11.515,3.705
	c-1.581,3.076-2.24,5.02-2.607,7.975c-1.044,8.4-0.754,5.652,6.383,5.463c13.489-0.36,10.113,7.911,3.037,8.387
	c0,0-7.613,1.092-8.511,1.697c-3.675,2.479-3.198,17.332-3.001,18.849c0.389,3.006,0.926,2.151,4.592,2.151
	S215.619,323.587,216.631,323.587z M172.38,299.063c2.137-0.167,10.435-1.915,12.521-2.563c3.324-1.033,3.424-0.855,3.5-4.5
	c0.053-2.475-0.993-6.326-1.384-8.837c-0.36-2.31-3.919-2.019-7.7-1.663c-9.554,0.899-9.916,2.666-9.916,5.916
	c0,2.198-0.405,6.269-0.405,8.76C168.996,299.51,170.13,299.24,172.38,299.063z M152.856,252.5
	c-13.597-7.267-1.345-7.654,9.229-6.693c16.86,1.534,54.092-11.266,63.316-9.307c1.789,0.38,5.432,2.407,6.545,3
	c1.785,0.95,6.389,4.002,6.389,6.039c0,1.929-0.775,3.223-2.586,4.704c-2.344,1.917-3.155,2.257-9.303,2.257
	c-4.029,0-18.711,0-32.045,0s-24.834,2-30.5,2S154.661,253.465,152.856,252.5z M187.651,234.004
	c-1.967-2.234-2.07-33.536,0.25-35.146c1.42-0.986,1.285-0.772,3.071,0.071c1.646,0.777,2.032,1.365,2.5,1.571
	c5.114,2.259,0.507,30.658-0.897,32.739C191.392,234.994,189.54,236.15,187.651,234.004z M252.303,195.5
	c-0.604,0-29.36-24.35-30.901-26c-2.109-2.258-3.691-3-6.401-3c-2.604,0-3.81,1.391-5.837,3.744
	c-1.008,1.17-12.871,9.908-15.281,11.559c-1.863,1.275-24.334,11.217-26.48,11.697c-1.939,0.435-5.125,2-6.5,2
	c-1.834,0-2.5-0.533-2.5-2c0-1.311,0.76-1.521,1.933-2c1.704-0.695,20.847-13.935,24.72-16.631
	c6.654-4.633,17.309-13.596,19.877-15.873c1.639-1.451,0.197-2.038-1.66-2.496c-1.738-0.429-10.219-5-11.869-5
	c-3.355,0-3.654-0.489-1.571-2.571c1.615-1.615,5.618-1.615,8.571-0.429c0.51,0.205,12.35,5,14,5c2.334,0,2.533-0.559,3.435-1.826
	c0.782-1.101,4.626-10.519,5.026-11.581c1.064-2.828,0.177-2.725-3.251-2.066c-1.62,0.312-21.9,7.474-25.281,7.474
	c-6.192,0-8.929-1.331-8.929-4.345c0-0.818-0.508-3.616,5.046-3.915c5.323-0.282,34.626-8.679,44.843-7.363
	c1.878,0.242,7.293,4.13,6.361,7.885c-1.666,6.718-14.25,19.451-14.25,22.738c0,3.334,0.647,3.025,2,4
	c1.447,1.043,28.887,14.896,35.014,17c5.632,1.935,24.311,5.266,30.517,6.402c2.202,0.404,6.47,2.149,6.47,3.598
	c0,1.467-0.666,2-2.5,2c-1.375,0-6.544-0.016-10.32,0.437c-7.416,0.889-16.123,5.319-24.18,5.482
	C253.935,199.59,252.907,195.5,252.303,195.5z M119.401,160.527c-0.022-2.645,4.577-3.949,8.693-6.867
	c4.152-2.943,23.43-38.04,26.307-44.66c1.003-2.308,2.666-5.5,4-5.5c1.619,0,2,0.667,2,3.5c0,1.925-1.026,5.527-2,7.5
	c-2.299,4.659-14.604,39.126-16.912,48c-1.557,5.984-2.41,11.991-4.463,14.021c-1.81,1.788-2.116,0.565-3.375,0.547
	C131.184,177.031,119.428,163.766,119.401,160.527z M175.407,132.004c-0.688-0.78,0.6-23.601,0.902-26.621
	c0.256-2.562,1.126-7.34,0.092-9.883c-1.621-3.987-1.088-6.194,1-6c3.09,0.287,6.697,5.163,8,8c0.612,1.333,0.781,2.64,2.5,2
	c3.453-1.286,19.027-4.935,30.244-6.162c7.489-0.819,12.107,1.69,12.635-1.838c0.619-4.142-0.311-5.138-0.273-8.5
	c0.043-4.019,0.666-19.828,1.895-26c3.662-18.409-1.929-13.347-4.71-13.368c-3.794-0.029-25.519,5.323-29.29,7.785
	c-2.23,1.457-1.928,8.669-0.571,10.655c2.583,3.781,13.234-3.884,20.044-4.571c4.572-0.462,7.137,0.466,8.17,1.5
	c2.703,2.703-0.717,4.676-8.939,5.157c-3.961,0.232-14.129,3.85-15.703,4.343c-2.736,0.856-3,0-3,6c0,3.333,0.25,3.675,1.736,4.407
	c1.01,0.498,17.279-3.828,18.631-4.407c1.383-0.593,9.332-2.73,8.501,2.329c-0.397,2.426-5.246,4.071-6.931,4.79
	c-1.852,0.79-19.156,4.901-20.806,5.231c-2.148,0.43-2.346,1.407-3.132,2.625c-0.855,1.326-0.916,1.828-3.835,1.828
	c-6.085,0-5.977-0.342-6.339-22.822c-0.242-15.126-0.646-20.422-1.576-20.731c-1.695-0.564-1.592-5.904,0.127-6.563
	c1.952-0.749,10.346,1.068,12.125,1.314c2.382,0.331,29.591-3.699,34.498-6c2.3-1.078,4.952-0.804,7.855-0.078
	c3.577,0.894,8.292,5.04,8.176,8.001c-0.354,8.929-4.143,25.043-6.597,37.935c-1.87,9.821,1.318,7.329,9.99,5.98
	c2.199-0.343,3.006-1.794,5.085-1.838c2.305-0.048,10.799,7.445,11.709,12.3c0.587,3.132-1.113,3.853-1.664,5.365
	c-0.828,2.274-9.709,10.554-11.25,12.203c-1.541,1.65-4.764,3.482-6.305,5.132c-3.336,3.571-5.918,3.152-9.268,0.75
	c-1.812-1.3-4.29-0.61-6.423-0.751c-5.011-0.329-32.496,2.539-39.526,4.479c-4.816,1.33-9.522,1.336-9.783,3.021
	C182.802,132.882,178.063,135.021,175.407,132.004z M192.946,120.5c1.4,0,3.65-1.104,5-2.454c2.065-2.064,2.455-3.415,2.455-8.5
	c0-4.809,0.096-5.758-1.559-6.046c-3.616-0.628-8.319,0.916-9.498,1.542c-2.289,1.216-3.986,1.018-3.275,6.708
	c0.43,3.429,1.427,8.294,2.332,8.833C189.878,121.464,191.547,120.5,192.946,120.5z M219.556,111.833
	c0.213-1.67,2.01-8.248,0.417-10.742c-1.089-1.706-3.921-0.236-6.316-0.149c-5.776,0.206-3.976,4.849-4.255,9.641
	c-0.32,5.5,0.166,6.087,2.301,5.918C218.966,115.933,219.153,114.981,219.556,111.833z M228.604,115.087
	c1.803,1.629,12.855,0.795,15.693-0.084c2.332-0.722,5.379-11.488,6.104-13.87c1.312-4.308-2.442-3.521-6-3.633
	c-3.324-0.104-6.645,0.591-8.25,1.675c-3.66,2.473-5.232,4.57-6.581,7.409C228.384,109.081,227.464,114.056,228.604,115.087z
	 M138.401,103.5c-0.795-1.104-8.343-4.128-12.221-6c-2.836-1.368-3.735-2.188-1.251-4.671c1.219-1.219,15.159-1.308,19.056,0.671
	c1.185,0.603,8.684,2.808,8.416,8c-0.095,1.821-4.23,4-7.279,4C140.99,105.5,139.53,105.065,138.401,103.5z M150.401,69.5
	c-1.65-0.469-16.479-12.136-16.479-14.342c0-1.318,1.027-1.111,8.979-1.658c7.664-0.521,16.021,1.842,15.5,9.5
	c-0.183,2.684-0.601,5.244-1.429,6.071C155.349,70.695,151.997,69.954,150.401,69.5z"/>
</svg>
